<?xml version="1.0" standalone="no"?>
<!DOCTYPE svg PUBLIC "-//W3C//DTD SVG 20010904//EN"
 "http://www.w3.org/TR/2001/REC-SVG-20010904/DTD/svg10.dtd">
<svg version="1.0" xmlns="http://www.w3.org/2000/svg"
 width="1200.000000pt" height="1200.000000pt" viewBox="0 0 1200.000000 1200.000000"
 preserveAspectRatio="xMidYMid meet">
<metadata>
Created by potrace 1.11, written by Peter Selinger 2001-2013
</metadata>
<g transform="translate(0.000000,1200.000000) scale(0.100000,-0.100000)"
fill="#000000" stroke="none">
<path d="M3020 11389 c-169 -33 -312 -169 -360 -341 -19 -69 -20 -107 -20
-1056 0 -542 -2 -987 -3 -989 -2 -1 -500 -3 -1108 -3 -968 0 -1111 -2 -1164
-16 -174 -46 -303 -173 -349 -345 -22 -81 -22 -7597 0 -7678 47 -176 199 -319
373 -351 35 -6 945 -10 2592 -10 l2539 0 0 1250 c0 688 -2 1250 -3 1250 -2 0
-31 -9 -65 -20 -58 -19 -192 -49 -292 -65 -63 -10 -393 -14 -444 -5 -22 5 -59
10 -81 13 -105 15 -314 72 -372 102 -15 8 -31 15 -36 15 -14 0 -163 75 -237
119 -229 137 -450 355 -595 586 -56 90 -123 221 -151 299 -8 22 -24 65 -34 94
-21 58 -64 248 -75 327 -11 83 -14 345 -4 430 58 525 348 1004 785 1297 239
160 520 265 790 295 83 9 359 10 429 1 111 -15 300 -58 370 -84 13 -5 15 137
15 1245 l0 1251 -960 0 -960 0 0 720 0 720 2400 0 2400 0 0 -720 0 -720 -960
0 -960 0 0 -1929 0 -1930 -27 9 c-16 4 -46 15 -68 23 -22 9 -168 61 -325 116
-255 89 -390 137 -615 217 -194 70 -336 114 -390 123 -70 11 -238 7 -311 -8
-283 -57 -538 -288 -622 -566 -32 -104 -41 -178 -37 -295 13 -351 236 -643
581 -759 85 -28 106 -32 221 -37 130 -5 221 12 405 77 79 27 193 67 253 89 61
21 155 54 210 74 55 19 159 56 230 81 72 26 141 51 155 55 33 11 300 106 323
115 16 7 17 -89 17 -1924 l0 -1931 2548 0 c2281 0 2553 2 2607 16 172 45 304
175 349 345 22 81 22 7597 0 7678 -47 175 -198 318 -373 351 -34 6 -447 10
-1152 10 l-1099 0 -1 983 c0 540 -3 996 -5 1012 -29 190 -193 359 -383 395
-68 13 -5885 12 -5951 -1z"/>
</g>
</svg>
